<svg xmlns="http://www.w3.org/2000/svg" width="206.426" height="27.087" viewBox="0 0 206.426 27.087"><g transform="translate(-960 -4494)"><path d="M29.911,13.75l-6.229,6.072L25.153,28.4A1,1,0,0,1,23.7,29.452L16,25.4,8.3,29.451A1,1,0,0,1,6.848,28.4l1.471-8.576L2.089,13.75a1,1,0,0,1,.555-1.706l8.609-1.25,3.85-7.8a1.041,1.041,0,0,1,1.794,0l3.85,7.8,8.609,1.25a1,1,0,0,1,.555,1.706Z" transform="translate(958.213 4491.52)" fill="#f12441"/><path d="M29.911,13.75l-6.229,6.072L25.153,28.4A1,1,0,0,1,23.7,29.452L16,25.4,8.3,29.451A1,1,0,0,1,6.848,28.4l1.471-8.576L2.089,13.75a1,1,0,0,1,.555-1.706l8.609-1.25,3.85-7.8a1.041,1.041,0,0,1,1.794,0l3.85,7.8,8.609,1.25a1,1,0,0,1,.555,1.706Z" transform="translate(1002.213 4491.52)" fill="#f12441"/><path d="M29.911,13.75l-6.229,6.072L25.153,28.4A1,1,0,0,1,23.7,29.452L16,25.4,8.3,29.451A1,1,0,0,1,6.848,28.4l1.471-8.576L2.089,13.75a1,1,0,0,1,.555-1.706l8.609-1.25,3.85-7.8a1.041,1.041,0,0,1,1.794,0l3.85,7.8,8.609,1.25a1,1,0,0,1,.555,1.706Z" transform="translate(1047.213 4491.52)" fill="#f12441"/><path d="M29.911,13.75l-6.229,6.072L25.153,28.4A1,1,0,0,1,23.7,29.452L16,25.4,8.3,29.451A1,1,0,0,1,6.848,28.4l1.471-8.576L2.089,13.75a1,1,0,0,1,.555-1.706l8.609-1.25,3.85-7.8a1.041,1.041,0,0,1,1.794,0l3.85,7.8,8.609,1.25a1,1,0,0,1,.555,1.706Z" transform="translate(1091.213 4491.52)" fill="#f12441"/><path d="M29.911,13.75l-6.229,6.072L25.153,28.4A1,1,0,0,1,23.7,29.452L16,25.4,8.3,29.451A1,1,0,0,1,6.848,28.4l1.471-8.576L2.089,13.75a1,1,0,0,1,.555-1.706l8.609-1.25,3.85-7.8a1.041,1.041,0,0,1,1.794,0l3.85,7.8,8.609,1.25a1,1,0,0,1,.555,1.706Z" transform="translate(1136.213 4491.52)" fill="#f12441"/></g></svg>